:version 1.10
:name ASF
:units
  mass 1
  length 1
  angle deg
:documentation
  ASF file generated by Kaydara
:root
  axis xyz
  order  tx ty tz rx ry rz
  position 0 0 0
  orientation 0 0 0
:bonedata
  begin
    id 1
    name RightUpLegDummy
    direction -0.65628 -0.754516 0.00165102
    length 4.76918
    axis 0 0 0 xyz
  end
  begin
    id 2
    name RightUpLeg
    direction -0.145584 -0.923362 0.355256
    length 17.9961
    axis -24.7611 -13.1006 1.78531 xyz
    dof rx ry rz
  end
  begin
    id 3
    name RightLeg
    direction 0.263379 0.172355 -0.949171
    length 13.3386
    axis 89.6202 -21.1929 12.3855 xyz
    dof rx ry rz
  end
  begin
    id 4
    name RightFoot
    direction 0.224283 -0.968777 -0.105675
    length 5.86697
    axis 56.995 -39.6905 17.3365 xyz
    dof rx ry rz
  end
  begin
    id 5
    name RightToes
    direction -0.0806345 -0.9037 0.420506
    length 4.75197
    axis 146.825 -39.7828 17.6019 xyz
    dof rx ry rz
  end
  begin
    id 6
    name SpineDummy
    direction -3.39852e-014 1 9.33296e-014
    length 8.13779
    axis 0 0 0 xyz
  end
  begin
    id 7
    name Spine
    direction -0.156609 0.733703 0.661176
    length 7.14978
    axis 41.2365 5.68757 17.0844 xyz
    dof rx ry rz
  end
  begin
    id 8
    name Spine1
    direction 0 0 0
    length 0
    axis 42.8809 47.8308 -3.36039 xyz
    dof rx ry rz
  end
  begin
    id 9
    name HEadDummy
    direction 0.546431 0.701947 0.456819
    length 3.55512
    axis 42.8809 47.8308 -3.36039 xyz
  end
  begin
    id 10
    name HEad
    direction 0.23444 0.828559 0.508457
    length 7.35827
    axis 51.1864 49.2662 27.4903 xyz
    dof rx ry rz
  end
  begin
    id 11
    name LeftShoulder1Dummy
    direction 0.431183 0.475873 -0.766568
    length 2.49352
    axis 42.8809 47.8308 -3.36039 xyz
  end
  begin
    id 12
    name LeftShoulder1
    direction 0.268187 -0.383402 -0.883786
    length 4.48604
    axis -119.517 0.106469 35.1736 xyz
    dof rx ry rz
  end
  begin
    id 13
    name LeftArm
    direction 0.380567 -0.703221 -0.600541
    length 10.1142
    axis -5.41825 36.2925 7.8293 xyz
    dof rx ry rz
  end
  begin
    id 14
    name LeftForeArm
    direction 0.541071 -0.732356 -0.413396
    length 9.39839
    axis 4.65387 33.7604 7.81644 xyz
    dof rx ry rz
  end
  begin
    id 15
    name LeftHand
    direction 0.847511 -0.389379 -0.360707
    length 3.66142
    axis 7.65593 21.1436 -24.6758 xyz
    dof rx ry rz
  end
  begin
    id 16
    name RightShoulderDummy
    direction -0.692546 0.541855 0.476208
    length 2.49352
    axis 42.8809 47.8308 -3.36039 xyz
  end
  begin
    id 17
    name RightShoulder
    direction -0.870808 -0.316653 0.376065
    length 4.48602
    axis 141.571 51.133 -100.254 xyz
    dof rx ry rz
  end
  begin
    id 18
    name RightArm
    direction 0.366897 -0.87275 0.322015
    length 10.1142
    axis 92.3258 71.2036 138.917 xyz
    dof rx ry rz
  end
  begin
    id 19
    name RightForeArm
    direction 0.702487 -0.694568 0.155197
    length 9.39835
    axis 153.863 41.5092 -176.604 xyz
    dof rx ry rz
  end
  begin
    id 20
    name RightHand
    direction 0.79502 -0.601276 0.0800636
    length 3.66142
    axis 154.247 4.59222 142.9 xyz
    dof rx ry rz
  end
  begin
    id 21
    name LeftUpLegDummy
    direction 0.65628 -0.754516 0.00165102
    length 4.76919
    axis 0 0 0 xyz
  end
  begin
    id 22
    name LeftUpLeg
    direction -0.1277 -0.689368 0.713067
    length 17.9961
    axis -48.3385 -17.8675 0.791927 xyz
    dof rx ry rz
  end
  begin
    id 23
    name LeftLeg
    direction 0.109849 -0.991246 -0.0732378
    length 13.3386
    axis -2.05791 -7.30784 1.72042 xyz
    dof rx ry rz
  end
  begin
    id 24
    name LeftFoot
    direction 0.0448355 -0.272614 0.961078
    length 5.86697
    axis -18.7733 -7.89606 10.2113 xyz
    dof rx ry rz
  end
  begin
    id 25
    name LeftToes
    direction -0.18506 0.293668 0.937823
    length 4.75197
    axis 71.2267 -7.89606 10.2113 xyz
    dof rx ry rz
  end
:hierarchy
  begin
    root RightUpLegDummy SpineDummy LeftUpLegDummy
    RightUpLegDummy RightUpLeg
    RightUpLeg RightLeg
    RightLeg RightFoot
    RightFoot RightToes
    SpineDummy Spine
    Spine Spine1
    Spine1 HEadDummy LeftShoulder1Dummy RightShoulderDummy
    HEadDummy HEad
    LeftShoulder1Dummy LeftShoulder1
    LeftShoulder1 LeftArm
    LeftArm LeftForeArm
    LeftForeArm LeftHand
    RightShoulderDummy RightShoulder
    RightShoulder RightArm
    RightArm RightForeArm
    RightForeArm RightHand
    LeftUpLegDummy LeftUpLeg
    LeftUpLeg LeftLeg
    LeftLeg LeftFoot
    LeftFoot LeftToes
  end

:SAMPLES-PER-SECOND 30
:FULLY-SPECIFIED
:DEGREES
183
root  -8.98097 27.2594 12.1037 177.66 37.1626 162.802
RightUpLeg  -24.3838 27.8792 -5.06674
RightLeg  -16.0864 -57.4375 3.00234
RightFoot  -13.071 1.06021 6.90537
RightToes  -1.27222e-014 -6.36111e-015 6.36111e-015
Spine  16.375 -7.73797 1.97399
Spine1  -2.57404 -6.03017 29.8383
HEad  -24.225 -10.275 -27.4239
LeftShoulder1  6.36111e-015 -1.33558e-015 6.49777e-015
LeftArm  72.5673 -54.0493 -71.1221
LeftForeArm  -99.4275 -37.9807 114.495
LeftHand  10.6538 15.5968 17.9594
RightShoulder  -4.77083e-015 -6.36111e-015 -3.18055e-015
RightArm  26.2122 13.6716 -28.6743
RightForeArm  22.6379 6.78899 25.5577
RightHand  5.3292 -8.7263 -17.9662
LeftUpLeg  -36.4586 30.0933 -7.11329
LeftLeg  37.4709 -4.94322 -0.0857587
LeftFoot  -0.130068 0.931195 -3.10245
LeftToes  1.27222e-014 1.09105e-011 6.96064e-012
184
root  -8.92466 28.3118 11.7484 178.6 36.1255 164.63
RightUpLeg  -21.1018 26.3995 -3.98571
RightLeg  -23.7928 -53.9174 7.8172
RightFoot  -12.6556 1.23585 5.9551
RightToes  -1.27222e-014 -6.36111e-015 6.36111e-015
Spine  13.9929 -7.16915 3.10141
Spine1  -2.95854 -6.20852 27.8022
HEad  -25.6599 -10.1614 -27.1978
LeftShoulder1  6.36111e-015 -1.33558e-015 6.49777e-015
LeftArm  67.1119 -52.9501 -71
LeftForeArm  -96.3216 -45.6896 107.342
LeftHand  8.94605 13.7225 15.4631
RightShoulder  -4.77083e-015 -6.36111e-015 -3.18055e-015
RightArm  23.4752 9.98176 -28.9287
RightForeArm  27.0816 10.4747 27.2956
RightHand  1.07044 -2.50943 -4.14747
LeftUpLeg  -32.6577 30.4426 -6.48107
LeftLeg  33.6586 -5.21917 -0.313443
LeftFoot  1.79404 0.478719 -1.49488
LeftToes  1.27222e-014 1.09105e-011 6.96064e-012
185
root  -8.79261 29.7992 11.3776 179.074 33.3664 165.676
RightUpLeg  -17.0602 24.9821 -3.37666
RightLeg  -33.2233 -50.7299 13.2796
RightFoot  -9.1335 0.354566 5.44385
RightToes  -1.27222e-014 -6.36111e-015 6.36111e-015
Spine  11.0028 -6.85178 3.36907
Spine1  -4.25456 -6.77659 27.6391
HEad  -25.7655 -10.0251 -26.8306
LeftShoulder1  6.36111e-015 -1.33558e-015 6.49777e-015
LeftArm  64.6881 -51.7319 -74.5024
LeftForeArm  -87.5359 -55.8209 96.4574
LeftHand  7.16162 11.4115 13.1224
RightShoulder  -4.77083e-015 -6.36111e-015 -3.18055e-015
RightArm  24.5067 5.0893 -27.9951
RightForeArm  27.1992 10.5913 27.3612
RightHand  -0.0458142 -0.247157 0.721161
LeftUpLeg  -27.5414 32.0042 -6.74279
LeftLeg  28.0105 -8.17413 -2.34576
LeftFoot  4.96916 0.385919 -1.12461
LeftToes  1.27222e-014 1.09105e-011 6.96064e-012
186
root  -8.60763 31.6123 11.0023 179.823 29.2924 165.933
RightUpLeg  -14.1934 24.4363 -2.96619
RightLeg  -46.4254 -51.482 22.9328
RightFoot  2.97764 -1.29386 1.02832
RightToes  -1.27222e-014 -6.36111e-015 6.36111e-015
Spine  6.41893 -7.22752 2.52047
Spine1  -5.27839 -7.9183 29.1864
HEad  -23.1244 -10.0082 -26.1079
LeftShoulder1  6.36111e-015 -1.33558e-015 6.49777e-015
LeftArm  67.0358 -50.8237 -81.3919
LeftForeArm  -69.9319 -65.0394 79.1278
LeftHand  5.03525 8.78068 9.11366
RightShoulder  -4.77083e-015 -6.36111e-015 -3.18055e-015
RightArm  27.1507 -1.40051 -27.5952
RightForeArm  22.4256 9.38757 23.5908
RightHand  0.550737 -1.76062 -1.65865
LeftUpLeg  -20.9624 34.7685 -5.61514
LeftLeg  21.0984 -18.8878 -7.34416
LeftFoot  7.47791 4.05344 -11.0201
LeftToes  1.27222e-014 1.09105e-011 6.96064e-012
187
root  -8.38948 33.2906 10.516 -178.693 25.5936 166.49
RightUpLeg  -13.3447 24.5486 -1.75354
RightLeg  -56.9016 -51.3746 31.2143
RightFoot  18.0439 1.16845 -9.67771
RightToes  -1.27222e-014 -6.36111e-015 6.36111e-015
Spine  0.310645 -7.77146 1.79601
Spine1  -5.67526 -9.33794 30.8662
HEad  -18.5355 -10.2334 -24.6569
LeftShoulder1  6.36111e-015 -1.33558e-015 6.49777e-015
LeftArm  73.43 -49.771 -89.9071
LeftForeArm  -45.6764 -70.044 56.3965
LeftHand  2.61007 5.53583 3.20679
RightShoulder  -4.77083e-015 -6.36111e-015 -3.18055e-015
RightArm  30.4531 -8.69891 -27.52
RightForeArm  14.9802 6.85367 17.2317
RightHand  0.621487 -0.474938 -3.9817
LeftUpLeg  -13.1056 38.6512 -1.36204
LeftLeg  13.4114 -30.7002 -9.11574
LeftFoot  5.03972 10.9641 -31.222
LeftToes  1.27222e-014 1.09105e-011 6.96064e-012
188
root  -8.25645 34.756 9.98426 -177.519 22.8921 167.385
RightUpLeg  -13.5316 24.3426 0.477399
RightLeg  -57.0217 -46.4816 28.3601
RightFoot  24.4077 6.72842 -19.2543
RightToes  -1.27222e-014 -6.36111e-015 6.36111e-015
Spine  -5.37585 -8.69339 0.898071
Spine1  -5.62209 -10.6919 32.2187
HEad  -14.1934 -10.2311 -22.7841
LeftShoulder1  6.36111e-015 -1.33558e-015 6.49777e-015
LeftArm  78.254 -47.5141 -95.5858
LeftForeArm  -26.3265 -71.2826 38.5326
LeftHand  0.896561 2.64983 -1.24264
RightShoulder  -4.77083e-015 -6.36111e-015 -3.18055e-015
RightArm  34.4604 -14.9493 -26.0709
RightForeArm  7.10523 2.25996 10.978
RightHand  -0.534673 3.65394 -0.995011
LeftUpLeg  -4.63378 42.7617 4.69315
LeftLeg  7.87286 -33.0559 -7.1782
LeftFoot  1.6356 13.3481 -41.2611
LeftToes  1.27222e-014 1.09105e-011 6.96064e-012
189
root  -8.184 36.0745 9.45386 -177.412 20.7293 168.386
RightUpLeg  -13.4239 23.7491 3.08534
RightLeg  -52.7017 -35.8041 17.7893
RightFoot  21.3242 8.85814 -22.1887
RightToes  -1.27222e-014 -6.36111e-015 6.36111e-015
Spine  -9.62418 -10.0776 -0.626596
Spine1  -5.74131 -11.775 34.7875
HEad  -11.2589 -9.47682 -21.454
LeftShoulder1  6.36111e-015 -1.33558e-015 6.49777e-015
LeftArm  76.6454 -44.8146 -95.2797
LeftForeArm  -18.8357 -70.8192 31.2765
LeftHand  0.398774 1.61885 -2.33276
RightShoulder  -4.77083e-015 -6.36111e-015 -3.18055e-015
RightArm  38.5601 -19.9249 -23.9524
RightForeArm  1.49742 -2.0013 7.02129
RightHand  -1.25218 6.20844 2.35501
LeftUpLeg  4.35615 43.674 10.4224
LeftLeg  7.66535 -26.5105 -5.72217
LeftFoot  -0.733997 9.49531 -32.0941
LeftToes  1.27222e-014 1.09105e-011 6.96064e-012
190
root  -8.09524 36.994 8.92384 -177.714 18.1335 169.426
RightUpLeg  -13.4991 23.2576 5.20169
RightLeg  -54.795 -25.8152 10.4285
RightFoot  17.7492 6.69223 -18.475
RightToes  -1.27222e-014 -6.36111e-015 6.36111e-015
Spine  -13.2403 -11.643 -2.61593
Spine1  -6.34488 -12.5824 39.3613
HEad  -9.20395 -8.23764 -20.9046
LeftShoulder1  6.36111e-015 -1.33558e-015 6.49777e-015
LeftArm  70.3758 -42.9334 -91.0113
LeftForeArm  -22.8282 -69.5538 33.7848
LeftHand  0.776051 2.17876 -0.702799
RightShoulder  -4.77083e-015 -6.36111e-015 -3.18055e-015
RightArm  42.8199 -24.7608 -24.3719
RightForeArm  -1.05819 -4.22687 5.23208
RightHand  -1.14171 6.02899 1.24993
LeftUpLeg  11.8379 40.7336 13.1309
LeftLeg  10.2204 -17.1481 -4.08692
LeftFoot  -2.61563 5.28003 -19.2457
LeftToes  1.27222e-014 1.09105e-011 6.96064e-012
191
root  -8.01116 37.5652 8.46177 -177.601 14.7578 170.323
RightUpLeg  -14.1098 22.7637 6.88798
RightLeg  -64.1419 -21.9568 10.3607
RightFoot  15.2662 4.73696 -14.8391
RightToes  -1.27222e-014 -6.36111e-015 6.36111e-015
Spine  -16.8747 -13.0865 -4.5037
Spine1  -6.88651 -13.0785 44.8566
HEad  -7.53301 -7.50937 -20.3019
LeftShoulder1  6.36111e-015 -1.33558e-015 6.49777e-015
LeftArm  63.1596 -42.6621 -86.269
LeftForeArm  -33.8146 -68.2807 42.6868
LeftHand  1.05166 2.48364 0.747332
RightShoulder  -4.77083e-015 -6.36111e-015 -3.18055e-015
RightArm  48.394 -29.4019 -28.6468
RightForeArm  -2.85541 -6.34147 4.0483
RightHand  -0.64411 4.64113 -1.81778
LeftUpLeg  17.9312 36.0906 13.3701
LeftLeg  12.0111 -13.1291 -3.16801
LeftFoot  -3.78161 4.47804 -17.0058
LeftToes  1.27222e-014 1.09105e-011 6.96064e-012
192
root  -7.97872 37.9363 8.08942 -177.539 11.0785 170.731
RightUpLeg  -14.2216 22.1172 7.79942
RightLeg  -75.6661 -18.2876 10.6564
RightFoot  11.9694 4.7688 -14.2238
RightToes  -1.27222e-014 -6.36111e-015 6.36111e-015
Spine  -20.2172 -14.57 -6.20421
Spine1  -6.55277 -13.5567 49.5201
HEad  -6.40069 -7.91275 -19.069
LeftShoulder1  6.36111e-015 -1.33558e-015 6.49777e-015
LeftArm  56.0495 -44.1093 -82.1762
LeftForeArm  -47.7969 -66.7815 54.9165
LeftHand  0.772316 1.92852 0.182916
RightShoulder  -4.77083e-015 -6.36111e-015 -3.18055e-015
RightArm  55.5918 -32.8864 -35.0743
RightForeArm  -5.29159 -9.49932 2.983
RightHand  -0.354479 3.73418 -3.01861
LeftUpLeg  23.9748 32.6027 12.818
LeftLeg  10.722 -12.5246 -2.83574
LeftFoot  -3.56134 5.005 -18.8466
LeftToes  1.27222e-014 1.09105e-011 6.96064e-012
193
root  -8.00867 37.9871 7.75417 -178.15 7.20407 170.822
RightUpLeg  -13.1664 21.5988 8.22701
RightLeg  -85.003 -13.8223 4.74632
RightFoot  13.0918 4.92252 -14.7314
RightToes  -1.27222e-014 -6.36111e-015 6.36111e-015
Spine  -22.7082 -16.2392 -7.47173
Spine1  -5.68266 -14.3658 52.9563
HEad  -5.49998 -8.86863 -17.4966
LeftShoulder1  6.36111e-015 -1.33558e-015 6.49777e-015
LeftArm  48.7845 -46.7473 -78.2479
LeftForeArm  -61.4853 -63.7268 66.4248
LeftHand  0.414367 1.22534 -0.668393
RightShoulder  -4.77083e-015 -6.36111e-015 -3.18055e-015
RightArm  63.9488 -35.3012 -41.3332
RightForeArm  -7.60237 -12.242 2.0402
RightHand  -0.334285 3.35412 -2.4526
LeftUpLeg  30.8152 31.6017 12.8302
LeftLeg  6.56216 -10.2136 -1.84523
LeftFoot  -3.70632 4.14138 -15.6924
LeftToes  1.27222e-014 1.09105e-011 6.96064e-012
